<?xml version="1.0" standalone="no"?><!DOCTYPE svg PUBLIC "-//W3C//DTD SVG 1.1//EN" "http://www.w3.org/Graphics/SVG/1.1/DTD/svg11.dtd"><svg t="1564451170015" class="icon" viewBox="0 0 1024 1024" version="1.1" xmlns="http://www.w3.org/2000/svg" p-id="1724" width="48" height="48" xmlns:xlink="http://www.w3.org/1999/xlink"><defs><style type="text/css"></style></defs><path d="M258.773333 316.8A64 64 0 0 1 213.333333 298.666667l-30.08-30.72 90.666667-90.453334 30.08 30.08a64 64 0 0 1-45.226667 109.226667z m-15.146666-48.853333a21.333333 21.333333 0 0 0 30.293333 0 21.333333 21.333333 0 0 0 0-30.08z" fill="#3F4347" p-id="1725"></path><path d="M274.026667 298.368l29.632-30.72 134.976 130.176-29.610667 30.72zM612.181333 631.616l30.165334-30.165333 116.608 116.608-30.165334 30.165333z" fill="#3F4347" p-id="1726"></path><path d="M743.893333 839.893333a106.666667 106.666667 0 0 1-75.093333-31.146666l-129.92-129.706667 30.293333-30.293333 129.706667 129.92A64 64 0 0 0 789.333333 687.786667l-129.493333-129.493334 30.08-30.293333 129.493333 129.706667a106.666667 106.666667 0 0 1-75.306666 182.186666zM675.2 497.92a149.333333 149.333333 0 0 1-105.6-254.933333l38.826667-39.04L638.72 234.666667l-39.04 38.4a106.666667 106.666667 0 0 0 75.52 182.186666 105.386667 105.386667 0 0 0 75.306667-31.36L789.333333 385.066667l30.08 30.08-39.04 39.04a148.053333 148.053333 0 0 1-105.173333 43.733333z" fill="#3F4347" p-id="1727"></path><path d="M819.626667 415.146667l-45.226667-45.226667-15.146667 15.146667a85.333333 85.333333 0 0 1-60.16 24.96 85.333333 85.333333 0 0 1-85.333333-85.333334 85.333333 85.333333 0 0 1 24.96-60.373333l15.146667-15.146667-45.44-45.226666 30.293333-30.08 75.306667 75.306666-45.226667 45.226667a42.666667 42.666667 0 0 0 30.293333 72.96 42.666667 42.666667 0 0 0 30.08-12.586667l45.226667-45.226666 75.52 75.52zM259.413333 721.493333h42.666667v42.666667h-42.666667zM454.186667 472.618667l29.994666-30.357334 84.650667 83.690667-29.994667 30.357333z" fill="#3F4347" p-id="1728"></path><path d="M280.106667 850.133333a106.666667 106.666667 0 0 1-75.52-181.973333l2.56-2.133333 220.8-160.426667 25.173333 34.56L234.666667 699.52A64 64 0 0 0 234.666667 789.333333a65.493333 65.493333 0 0 0 89.6 0l159.36-219.306666 34.346666 25.173333-162.346666 223.786667a106.666667 106.666667 0 0 1-75.52 31.146666z" fill="#3F4347" p-id="1729"></path></svg>