<?xml version="1.0" standalone="no"?><!DOCTYPE svg PUBLIC "-//W3C//DTD SVG 1.1//EN" "http://www.w3.org/Graphics/SVG/1.1/DTD/svg11.dtd"><svg t="1564451137176" class="icon" viewBox="0 0 1024 1024" version="1.1" xmlns="http://www.w3.org/2000/svg" p-id="1476" width="48" height="48" xmlns:xlink="http://www.w3.org/1999/xlink"><defs><style type="text/css"></style></defs><path d="M192 234.666667h640v42.666666H192zM192 746.666667h640v42.666666H192zM256 298.666667h42.666667v42.666666h-42.666667zM320 298.666667h42.666667v42.666666h-42.666667zM384 298.666667h42.666667v42.666666h-42.666667zM426.666667 682.666667h-170.666667V469.333333h170.666667z m-128-42.666667h85.333333v-128h-85.333333zM469.333333 469.333333h149.333334v42.666667h-149.333334z" fill="#3F4347" p-id="1477"></path><path d="M853.333333 405.333333H170.666667v-170.666666h682.666666z m-640-42.666666h597.333334v-85.333334H213.333333zM853.333333 789.333333H170.666667V469.333333h42.666666v277.333334h597.333334V448.426667h42.666666V789.333333z" fill="#3F4347" p-id="1478"></path><path d="M469.333333 469.333333h149.333334v42.666667h-149.333334zM469.333333 554.666667h298.666667v42.666666H469.333333zM469.333333 640h298.666667v42.666667H469.333333z" fill="#3F4347" p-id="1479"></path></svg>